<svg xmlns="http://www.w3.org/2000/svg" viewBox="0 0 1700 980" role="img" aria-labelledby="t d"><title id="t">Analyse-Dashboard</title><desc id="d">Eigenständig erstellte illustrative Produktvisualisierung für die SaaS-Demo.</desc><rect width="1700" height="980" rx="44" fill="#11151d"/><rect x="34" y="34" width="1632" height="912" rx="28" fill="#171d28" stroke="#384256" stroke-width="2"/><circle cx="88" cy="82" r="9" fill="#ff6b66"/><circle cx="120" cy="82" r="9" fill="#f6c65b"/><circle cx="152" cy="82" r="9" fill="#6ecb8b"/><rect x="70" y="145" width="265" height="750" rx="20" fill="#0e131b"/><rect x="98" y="190" width="118" height="22" rx="11" fill="#d8e1ff"/><g fill="#75819a"><rect x="98" y="280" width="165" height="18" rx="9"/><rect x="98" y="336" width="130" height="18" rx="9"/><rect x="98" y="392" width="180" height="18" rx="9"/><rect x="98" y="448" width="150" height="18" rx="9"/></g><g transform="translate(380 150)"><rect width="1230" height="165" rx="20" fill="#212938"/><rect x="36" y="34" width="190" height="20" rx="10" fill="#7c8cff"/><rect x="36" y="82" width="345" height="35" rx="10" fill="#eef2ff"/><rect x="860" y="38" width="320" height="85" rx="18" fill="#111721"/></g><g transform="translate(380 355)"><rect width="760" height="540" rx="20" fill="#202838"/><path d="M55 410c120-40 170-220 305-165s172 150 350-95" fill="none" stroke="#79e6c5" stroke-width="16" stroke-linecap="round"/><path d="M55 460h650M55 350h650M55 240h650M55 130h650" stroke="#465067" stroke-width="2"/><circle cx="360" cy="245" r="16" fill="#79e6c5"/></g><g transform="translate(1180 355)"><rect width="430" height="255" rx="20" fill="#202838"/><circle cx="118" cy="126" r="70" fill="none" stroke="#6d7dff" stroke-width="28"/><rect x="230" y="82" width="140" height="25" rx="12" fill="#eff2ff"/><rect x="230" y="128" width="95" height="18" rx="9" fill="#8994aa"/><rect y="295" width="430" height="245" rx="20" fill="#202838"/><g fill="#8591aa"><rect x="42" y="344" width="335" height="25" rx="12"/><rect x="42" y="405" width="268" height="25" rx="12"/><rect x="42" y="466" width="305" height="25" rx="12"/></g></g></svg>
