<svg xmlns="http://www.w3.org/2000/svg" viewBox="0 0 1200 1500" role="img" aria-labelledby="t d"><title id="t">Handwerker in heller Werkstatt</title><desc id="d">Eigenständig erstellte illustrative Platzhaltergrafik für eine lokale Dienstleistungsdemo.</desc><defs><linearGradient id="bg" x2="0" y2="1"><stop stop-color="#e8efe7"/><stop offset="1" stop-color="#cbd6c9"/></linearGradient></defs><rect width="1200" height="1500" fill="url(#bg)"/><rect x="0" y="930" width="1200" height="570" fill="#c59f6a"/><rect x="92" y="160" width="390" height="500" rx="16" fill="#f4f0e6"/><path d="M92 295h390M230 160v500M365 160v500" stroke="#8fa39a" stroke-width="12"/><g transform="translate(460 310)"><circle cx="190" cy="170" r="125" fill="#c88f6d"/><path d="M74 153q108-176 238-35v71H75z" fill="#273b36"/><rect x="70" y="285" width="305" height="500" rx="90" fill="#1d6257"/><path d="M93 400 0 710l90 38 100-255m176-70 145 265-86 50-112-190" fill="#c88f6d"/><rect x="125" y="430" width="190" height="280" rx="18" fill="#223a35"/><path d="M154 478h130M154 530h95" stroke="#d8eee4" stroke-width="20" stroke-linecap="round"/></g><g fill="#445a52"><rect x="90" y="1080" width="370" height="48" rx="24"/><rect x="120" y="1165" width="540" height="35" rx="18"/><rect x="735" y="1050" width="320" height="55" rx="12"/></g><circle cx="895" cy="950" r="72" fill="#efc561"/></svg>
